<svg fill="none" height="46" viewBox="0 0 203 46" width="203" xmlns="http://www.w3.org/2000/svg" xmlns:xlink="http://www.w3.org/1999/xlink"><clipPath id="a"><path d="m0 2.90527h53.8589v40h-53.8589z"/></clipPath><g clip-path="url(#a)"><g clip-rule="evenodd" fill-rule="evenodd"><path d="m23.5904 31.1113c-.1898-.3142-.3796-.6059-.5674-.8752v.2993c0 2.504-.4995 4.6799-1.4977 6.5277-.9992 1.8467-2.3845 3.2702-4.1559 4.2695-1.7724.9992-3.8319 1.4983-6.1792 1.4983-2.08792 0-3.9813-.4136-5.67932-1.2429-1.69897-.8282-3.04421-2.0936-4.03766-3.795s-1.4835427-3.8421-1.47305521-6.423h7.29637521c.02289 1.0249.21163 1.9002.56725 2.628s.84667 1.2846 1.47306 1.6704 1.36815.5782 2.22615.5782c.9019 0 1.6666-.218 2.293-.6541.6264-.4371 1.1031-1.0794 1.431-1.9269.327-.8475.491-1.8905.491-3.1302v-4.9685c-.3222-.2533-.6759-.4777-1.063-.669-5.33812-2.6333-10.72678 1.8724-10.13948 1.1296-.03147.0021-.01043-.0395.0668-.1368.95627-1.1948 3.38833-5.0347 9.16498-6.2039 10.1862-2.0626 15.4271 6.5747 17.2348 10.4114.4815 1.0249 1.35 2.923 3.56 4.619.8648.6637 2.6115 1.2451 3.8757 1.2451 1.2413 0 2.3214-.2031 3.2415-.6071.573-.2522 1.0659-.5664 1.4787-.9404-2.1442 1.9803-5.0854 3.4434-8.4262 3.4434-4.7575 0-8.5978-2.5083-10.7668-6.0244-.1382-.2533-.2764-.4937-.4146-.7225z" fill="#003f87"/><path d="m42.4448 42.5002c-.3871.0758-.7857.1389-1.1947.1902-.8504.1058-1.7466.1592-2.6885.1592-2.7983 0-6.4585-.5268-9.6105-3.5641-1.8362-1.7688-3.0089-3.4114-3.9414-5.3426-.0248-.0513-.0438-.1047-.0657-.156-.1802-.4296-.5463-1.1959-.5463-1.1959-.1306-.264-.2612-.5162-.3928-.7577 2.169 3.5161 6.0093 6.0244 10.7668 6.0244 3.3407 0 6.282-1.4632 8.4262-3.4435.2498-.2276.471-.4766.6627-.7491.5081-.7204.7617-1.5497.7617-2.4859 0-.872-.2288-1.6063-.6855-2.2005-.3194-.4157-.7408-.7876-1.2643-1.1168-.2259-.1421-.4699-.2757-.733-.4018-.8753-.4168-1.944-.7962-3.2083-1.1382l-3.7755-1.0623c-2.9222-.7973-5.2304-2.0434-6.9236-3.7383-1.6923-1.695-2.5332-3.9789-2.5218-6.8506-.0114-2.3533.5501-4.4084 1.6837-6.16748 1.1346-1.75804 2.6953-3.13027 4.6813-4.11776 1.9859-.98643 4.2436-1.48019 6.7711-1.48019 2.5733 0 4.8223.49376 6.7462 1.48019 1.924.98749 3.4218 2.35972 4.4944 4.11776 1.0716 1.75908 1.6246 3.79498 1.6589 6.11088 0 0-5.4105-6.74677-9.8677-6.74677-2.9337 0-5.4459 1.26107-7.3289 3.24137-.2555.2266-.4757.4799-.6616.7578l-.0096.0149c-.4347.6573-.652 1.4043-.652 2.239-.022.6957.1105 1.3027.3975 1.8221.2879.5183.6864.964 1.1936 1.337.5082.3741 1.0946.6958 1.761.9683.6655.2714 1.3767.5023 2.1327.6925l3.1149.8346c1.5121.3794 2.9002.886 4.1644 1.5187s2.3588 1.4097 3.2846 2.3341c.9248.9234 1.6445 2.0113 2.1575 3.2638.5138 1.2515.7761 2.6879.7875 4.307-.0114 2.3779-.5501 4.4373-1.617 6.1772-1.0659 1.7388-2.6009 3.0864-4.604 4.0418-1.0135.4831-2.1308.8433-3.354 1.0827z" fill="#16bce1"/><path d="m15.7778 16.8392v-13.4017h7.245v14.9215c-2.0146-1.088-4.4172-1.7292-7.245-1.5198z" fill="#003f87"/><path d="m51.5458 14.614h-7.0257c-.1354-1.5315-.716-2.7199-1.7428-3.5674-1.0278-.8485-2.4207-1.27175-4.1817-1.27175-1.1965 0-2.2061.18701-3.0299.55995-.4681.2116-.8733.4703-1.2156.7738 1.882-1.98034 4.3942-3.24141 7.3278-3.24141 4.4572 0 8.0497 2.85771 9.8679 6.74681z" fill="#003f87"/></g><path d="m52.7615 17.7365c-.5246-.8192-1.0568-1.4947-1.0621-1.5015l-.1533-.194-.1532.194c-.0053.0068-.5375.6823-1.0621 1.5015-.7178 1.1208-1.0818 1.9694-1.0818 2.5223 0 1.3474 1.0305 2.4436 2.2971 2.4436 1.2667 0 2.2972-1.0962 2.2972-2.4436 0-.5529-.364-1.4015-1.0818-2.5223z" fill="#16bce1"/></g><path d="m157.666 23.5911h-6.818l7.681-23.272741h8.637l7.682 23.272741h-6.819l-5.09-16.86365h-.182zm-1.273-9.1818h12.818v4.7272h-12.818z" fill="#16bce1"/><path d="m131.953 5.40927v-5.090911h20.227v5.090911h-7v18.18183h-6.227v-18.18183z" fill="#16bce1"/><path d="m123.822 7.59091c-.06-.75758-.344-1.34849-.852-1.77273-.5-.42424-1.261-.63636-2.284-.63636-.651 0-1.186.07954-1.602.23863-.409.15152-.712.35985-.909.625-.197.26516-.3.56819-.307.9091-.015.2803.034.53409.148.76136.121.2197.31.42045.568.60227.257.17424.587.33334.988.47727.402.14394.879.27273 1.432.38637l1.909.40909c1.288.27273 2.39.63259 3.307 1.07959.917.4469 1.667.9734 2.25 1.5795.583.5985 1.011 1.2727 1.284 2.0227.281.75.424 1.5682.432 2.4546-.008 1.5303-.39 2.8257-1.148 3.8863-.757 1.0606-1.841 1.8675-3.25 2.4205-1.401.553-3.087.8295-5.057.8295-2.022 0-3.787-.2992-5.295-.8977-1.5-.5985-2.667-1.5189-3.5-2.7614-.826-1.25-1.242-2.8484-1.25-4.7954h6c.038.7121.216 1.3106.534 1.7954.318.4849.765.8523 1.341 1.1023.583.25 1.277.375 2.08.375.674 0 1.238-.0833 1.693-.25.454-.1666.799-.3977 1.034-.6932.235-.2954.356-.6325.363-1.0113-.007-.3561-.125-.6667-.352-.9318-.219-.2728-.583-.5152-1.091-.7273-.507-.2197-1.193-.4243-2.057-.6137l-2.318-.5c-2.06-.4469-3.685-1.1931-4.875-2.2386-1.182-1.053-1.769-2.48863-1.761-4.30681-.008-1.47727.386-2.76894 1.182-3.875.803-1.11364 1.913-1.98106 3.329-2.602272 1.425-.621212 3.057-.931818 4.898-.931818 1.879 0 3.504.314394 4.875.943182s2.428 1.515148 3.17 2.659088c.75 1.13637 1.129 2.46591 1.137 3.98864z" fill="#16bce1"/><g fill="#003f87"><path d="m108.354 11.9545c0 2.591-.504 4.7766-1.512 6.5569-1.007 1.7727-2.367 3.1174-4.079 4.0341-1.712.909-3.6215 1.3636-5.7275 1.3636-2.1212 0-4.0379-.4583-5.75-1.375-1.7046-.9243-3.0606-2.2727-4.0682-4.0455-1-1.7803-1.5-3.9583-1.5-6.5341 0-2.59086.5-4.77268 1.5-6.54541 1.0076-1.7803 2.3636-3.125 4.0682-4.03409 1.7121-.916667 3.6288-1.375 5.75-1.375 2.106 0 4.0155.458333 5.7275 1.375 1.712.90909 3.072 2.25379 4.079 4.03409 1.008 1.77273 1.512 3.95455 1.512 6.54541zm-6.5 0c0-1.3939-.186-2.56814-.557-3.52268-.364-.96212-.905-1.6894-1.6252-2.18182-.7121-.5-1.5909-.75-2.6363-.75-1.0455 0-1.9281.25-2.6478.75-.7121.49242-1.2537 1.2197-1.625 2.18182-.3636.95454-.5454 2.12878-.5454 3.52268 0 1.394.1818 2.572.5454 3.5341.3713.9546.9129 1.6819 1.625 2.1819.7197.4924 1.6023.7386 2.6478.7386 1.0454 0 1.9242-.2462 2.6363-.7386.7202-.5 1.2612-1.2273 1.6252-2.1819.371-.9621.557-2.1401.557-3.5341z"/><path d="m76.5863.318359h6.2272v15.954541c-.0075 1.5152-.3901 2.8485-1.1477 4-.75 1.1439-1.7879 2.0379-3.1136 2.6818-1.3182.6364-2.8371.9546-4.5568.9546-1.4925 0-2.8561-.2576-4.0909-.7728-1.2349-.5227-2.2197-1.3409-2.9546-2.4545-.7348-1.1212-1.0985-2.5758-1.0909-4.3636h6.3182c.0227.5833.1212 1.0757.2954 1.4772.1819.4015.4319.7046.75.9091.3258.197.7197.2955 1.1819.2955.4697 0 .8636-.1023 1.1818-.3068.3257-.2046.5719-.5076.7386-.9091.1667-.4091.2538-.9129.2614-1.5114z"/><path d="m199.502 43.3555v-6.5455h1.815v6.5455zm.26-7.3892.903-1.939h1.679l-1.299 1.939z"/><path d="m193.852 39.5712v3.7841h-1.815v-6.5455h1.73v1.1549h.077c.145-.3807.388-.6819.729-.9034.341-.2245.754-.3367 1.24-.3367.454 0 .851.0994 1.189.2983s.6.483.788.8523c.187.3665.281.804.281 1.3125v4.1676h-1.815v-3.8438c.003-.4005-.1-.713-.307-.9375-.207-.2272-.493-.3409-.856-.3409-.245 0-.461.0526-.648.1577-.185.1051-.33.2585-.435.4602-.102.1989-.155.439-.158.7202z"/><path d="m186.82 43.4617c-.497 0-.948-.1278-1.351-.3835-.401-.2585-.719-.6378-.955-1.1378-.232-.5028-.349-1.1193-.349-1.8494 0-.75.121-1.3736.362-1.8707.242-.5.563-.8736.963-1.1208.404-.25.845-.375 1.326-.375.366 0 .671.0625.916.1875.247.1222.446.2756.596.4602.154.1819.27.3608.35.537h.055v-3.2813h1.811v8.7273h-1.789v-1.0483h-.077c-.085.1818-.206.3622-.362.5412-.154.1761-.354.3224-.601.4389-.245.1165-.543.1747-.895.1747zm.575-1.4446c.293 0 .54-.0795.742-.2386.204-.1619.36-.3878.468-.6776.111-.2897.167-.6292.167-1.0184s-.054-.7273-.162-1.0142c-.108-.287-.265-.5086-.469-.6648-.205-.1563-.453-.2344-.746-.2344-.298 0-.55.081-.754.2429-.205.162-.359.3864-.465.6733-.105.2869-.157.6193-.157.9972 0 .3807.052.7173.157 1.0099.108.2898.263.5171.465.6818.204.162.456.2429.754.2429z"/><path d="m181.141 40.5681v-3.7585h1.815v6.5454h-1.743v-1.1889h-.068c-.148.3835-.393.6918-.737.9247-.341.233-.757.3495-1.249.3495-.437 0-.822-.0995-1.155-.2983-.332-.1989-.592-.4816-.779-.8481-.185-.3664-.279-.8054-.282-1.3167v-4.1676h1.816v3.8437c.003.3864.106.6918.311.9162.204.2244.478.3367.822.3367.219 0 .424-.0498.614-.1492.19-.1023.344-.2528.46-.4517.119-.1989.178-.4446.175-.7372z"/><path d="m175.761 36.8104v1.3636h-3.942v-1.3636zm-3.047-1.5682h1.815v6.1023c0 .1676.026.2983.077.392.051.0909.122.1548.213.1918.094.0369.202.0554.324.0554.085 0 .17-.0071.255-.0213.086-.0171.151-.0299.196-.0384l.286 1.3509c-.091.0284-.219.061-.384.098-.164.0397-.365.0639-.6.0724-.438.0171-.821-.0412-1.151-.1747-.327-.1335-.581-.3409-.763-.6222-.182-.2812-.271-.6363-.268-1.0653z"/><path d="m170.987 38.6763-1.662.1023c-.029-.1421-.09-.2699-.183-.3835-.094-.1165-.218-.2088-.371-.277-.151-.071-.331-.1066-.541-.1066-.282 0-.519.0597-.712.179-.193.1165-.29.2727-.29.4688 0 .1562.063.2883.188.3963.125.1079.339.1946.643.2599l1.185.2387c.636.1306 1.111.3409 1.423.6306.313.2898.469.6705.469 1.1421 0 .429-.127.8054-.379 1.1292-.25.3239-.594.5767-1.032.7586-.434.1789-.936.2684-1.504.2684-.866 0-1.557-.1804-2.071-.5412-.511-.3636-.811-.8579-.899-1.4829l1.785-.0938c.054.2642.185.4659.393.6051.207.1364.473.2046.796.2046.319 0 .574-.0611.767-.1832.196-.125.296-.2856.299-.4816-.003-.1648-.073-.2997-.209-.4048-.136-.108-.347-.1903-.631-.2472l-1.133-.2258c-.639-.1279-1.115-.3495-1.428-.6648-.309-.3153-.464-.7173-.464-1.206 0-.4204.113-.7826.341-1.0866.23-.304.552-.5384.967-.7031.418-.1648.906-.2472 1.466-.2472.827 0 1.477.1747 1.952.5242.477.3494.755.8252.835 1.4275z"/><path d="m157.091 39.5711v3.7841h-1.816v-8.7273h1.765v3.3367h.076c.148-.3864.387-.6889.716-.9077.33-.2216.743-.3324 1.24-.3324.455 0 .851.0995 1.189.2983.341.196.605.4787.793.848.19.3665.284.8054.281 1.3168v4.1676h-1.815v-3.8437c.003-.4035-.1-.7174-.307-.9418-.205-.2244-.492-.3367-.861-.3367-.247 0-.466.0526-.656.1577-.188.1051-.335.2585-.443.4602-.105.1989-.159.439-.162.7202z"/><path d="m151.19 43.4831c-.671 0-1.247-.142-1.73-.4261-.48-.2869-.85-.6847-1.108-1.1932-.256-.5085-.384-1.0937-.384-1.7557 0-.6704.13-1.2585.388-1.7642.261-.5085.632-.9048 1.112-1.1889.48-.2869 1.051-.4304 1.713-.4304.571 0 1.071.1037 1.5.3111s.769.4986 1.019.8736.388.8153.413 1.321h-1.713c-.048-.3267-.176-.5895-.383-.7884-.205-.2017-.473-.3025-.806-.3025-.281 0-.527.0767-.737.2301-.207.1506-.369.3707-.486.6605-.116.2898-.175.6406-.175 1.0526 0 .4176.057.7727.171 1.0653.116.2926.28.5156.49.669s.456.2302.737.2302c.208 0 .394-.0427.558-.1279.168-.0852.306-.2088.414-.3707.111-.1648.183-.3622.217-.5924h1.713c-.028.5-.165.9404-.409 1.3211-.241.3778-.575.6733-1.001.8863-.426.2131-.931.3196-1.513.3196z"/><path d="m142.533 45.81c-.23 0-.446-.0185-.648-.0554-.199-.0341-.364-.0781-.494-.1321l.409-1.3551c.213.0653.405.1009.575.1065.173.0057.322-.0341.447-.1193.128-.0852.232-.2301.312-.4346l.106-.277-2.348-6.733h1.909l1.355 4.8068h.068l1.368-4.8068h1.922l-2.544 7.2529c-.122.3522-.288.659-.498.9204-.208.2642-.471.4673-.789.6094-.318.1449-.701.2173-1.15.2173zm1.005-9.8437.904-1.939h1.679l-1.3 1.939z"/><path d="m135.997 39.5712v3.7841h-1.815v-6.5455h1.73v1.1549h.076c.145-.3807.388-.6819.729-.9034.341-.2245.754-.3367 1.24-.3367.455 0 .851.0994 1.189.2983s.601.483.788.8523c.188.3665.282.804.282 1.3125v4.1676h-1.816v-3.8438c.003-.4005-.099-.713-.306-.9375-.208-.2272-.493-.3409-.857-.3409-.244 0-.46.0526-.648.1577-.184.1051-.329.2585-.434.4602-.103.1989-.155.439-.158.7202z"/><path d="m129.087 43.4789c-.418 0-.79-.0725-1.117-.2174-.326-.1477-.585-.365-.775-.6519-.188-.2898-.281-.6506-.281-1.0824 0-.3637.066-.6691.2-.9162.133-.2472.315-.446.545-.5966s.492-.2642.784-.3409c.296-.0767.606-.1307.929-.162.381-.0397.688-.0767.921-.1108.233-.0369.402-.0909.507-.1619s.158-.1761.158-.3153v-.0256c0-.2699-.086-.4787-.256-.6264-.168-.1477-.406-.2216-.716-.2216-.327 0-.587.0724-.78.2173-.193.1421-.321.321-.383.537l-1.679-.1364c.085-.3977.253-.7415.503-1.0313.25-.2926.572-.517.967-.6733.398-.159.858-.2386 1.381-.2386.363 0 .711.0426 1.044.1278.335.0853.632.2174.89.3964.262.1789.468.409.618.6903.151.2784.226.6122.226 1.0014v4.4148h-1.722v-.9077h-.051c-.105.2046-.246.385-.422.5412-.176.1534-.387.2742-.635.3622-.247.0853-.532.1279-.856.1279zm.52-1.2529c.267 0 .503-.0525.707-.1576.205-.108.365-.2529.482-.4347.116-.1818.174-.3878.174-.6179v-.6946c-.056.0369-.135.071-.234.1023-.097.0284-.206.0554-.328.0809-.122.0228-.244.0441-.367.064-.122.017-.233.0326-.332.0468-.213.0313-.399.081-.558.1492s-.283.1605-.371.277c-.088.1136-.132.2557-.132.4261 0 .2472.089.4361.268.5668.182.1278.412.1917.691.1917z"/><path d="m126.038 36.8104v1.3636h-3.942v-1.3636zm-3.047-1.5682h1.815v6.1023c0 .1676.026.2983.077.392.051.0909.122.1548.213.1918.094.0369.202.0554.324.0554.085 0 .171-.0071.256-.0213.085-.0171.15-.0299.196-.0384l.285 1.3509c-.091.0284-.218.061-.383.098-.165.0397-.365.0639-.601.0724-.438.0171-.821-.0412-1.151-.1747-.326-.1335-.581-.3409-.762-.6222-.182-.2812-.272-.6363-.269-1.0653z"/><path d="m117.318 43.355v-6.5454h1.76v1.142h.068c.12-.4062.32-.7131.601-.9204.282-.2103.605-.3154.972-.3154.091 0 .189.0057.294.0171.105.0113.197.027.277.0468v1.6108c-.085-.0255-.203-.0483-.354-.0681-.15-.0199-.288-.0299-.413-.0299-.267 0-.506.0583-.716.1747-.207.1137-.372.2728-.494.4773-.12.2046-.179.4404-.179.7074v3.7031z"/><path d="m116.389 36.8096-2.288 6.5454h-2.046l-2.288-6.5454h1.918l1.359 4.6832h.068l1.355-4.6832z"/><path d="m104.24 43.3555v-6.5455h1.816v6.5455zm.26-7.3892.904-1.939h1.679l-1.3 1.939z"/><path d="m98.5907 39.5712v3.7841h-1.8153v-6.5455h1.7301v1.1549h.0767c.1449-.3807.3878-.6819.7287-.9034.3409-.2245.7541-.3367 1.2401-.3367.455 0 .851.0994 1.189.2983s.601.483.788.8523c.188.3665.281.804.281 1.3125v4.1676h-1.815v-3.8438c.003-.4005-.099-.713-.307-.9375-.207-.2272-.493-.3409-.8562-.3409-.2443 0-.4602.0526-.6477.1577-.1847.1051-.3296.2585-.4347.4602-.1023.1989-.1548.439-.1577.7202z"/><path d="m92.5865 43.4829c-.6733 0-1.2528-.1364-1.7386-.4091-.483-.2756-.8551-.6648-1.1165-1.1676-.2614-.5057-.392-1.1037-.392-1.7941 0-.6733.1306-1.2642.392-1.7727s.6293-.9048 1.1037-1.1889c.4773-.2841 1.0369-.4262 1.679-.4262.4318 0 .8338.0696 1.2059.2089.375.1363.7017.3423.9801.6178.2813.2756.5.6222.6563 1.0398.1562.4148.2344.9006.2344 1.4574v.4986h-5.527v-1.125h3.8182c0-.2614-.0568-.4929-.1705-.6946-.1136-.2017-.2713-.3594-.473-.473-.1989-.1165-.4304-.1747-.6946-.1747-.2756 0-.5199.0639-.733.1917-.2102.125-.375.2941-.4943.5071-.1193.2102-.1804.4446-.1832.7031v1.0696c0 .3239.0596.6037.179.8395.1221.2358.294.4177.5156.5455s.4844.1918.7883.1918c.2017 0 .3864-.0285.554-.0853s.3111-.142.4304-.2557c.1193-.1136.2102-.2528.2727-.4176l1.679.1108c-.0852.4034-.2599.7557-.5241 1.0568-.2614.2983-.5995.5313-1.0142.6989-.412.1648-.8878.2472-1.4276.2472zm-.9716-9.3921.8566 1.0398.8565-1.0398h1.5469v.0597l-1.7301 1.875h-1.3509l-1.7259-1.875v-.0597z"/><path d="m88.4911 36.8104v1.3636h-3.9418v-1.3636zm-3.0469-1.5682h1.8153v6.1023c0 .1676.0256.2983.0767.392.0512.0909.1222.1548.2131.1918.0938.0369.2017.0554.3239.0554.0852 0 .1704-.0071.2557-.0213.0852-.0171.1505-.0299.196-.0384l.2855 1.3509c-.0909.0284-.2188.061-.3835.098-.1648.0397-.3651.0639-.6009.0724-.4375.0171-.821-.0412-1.1505-.1747-.3268-.1335-.581-.3409-.7628-.6222-.1818-.2812-.2713-.6363-.2685-1.0653z"/><path d="m83.7172 38.676-1.6619.1023c-.0284-.142-.0895-.2699-.1832-.3835-.0938-.1165-.2174-.2088-.3708-.277-.1505-.071-.3309-.1065-.5412-.1065-.2812 0-.5184.0596-.7116.179-.1932.1164-.2898.2727-.2898.4687 0 .1563.0625.2884.1875.3963.125.108.3395.1946.6435.26l1.1846.2386c.6364.1307 1.1108.3409 1.4233.6307.3125.2897.4688.6704.4688 1.142 0 .429-.1264.8054-.3793 1.1293-.25.3238-.5937.5767-1.0312.7585-.4347.179-.9361.2685-1.5043.2685-.8665 0-1.5568-.1804-2.071-.5412-.5114-.3637-.8111-.858-.8992-1.483l1.7856-.0937c.0539.2642.1846.4659.392.6051.2074.1363.473.2045.7969.2045.3182 0 .5738-.0611.767-.1832.196-.125.2955-.2855.2983-.4815-.0028-.1648-.0724-.2998-.2088-.4049-.1364-.1079-.3466-.1903-.6307-.2471l-1.1335-.2259c-.6392-.1278-1.115-.3494-1.4275-.6648-.3097-.3153-.4645-.7173-.4645-1.2059 0-.4205.1136-.7827.3409-1.0867.2301-.3039.5525-.5383.9673-.7031.4176-.1648.9063-.2472 1.4659-.2472.8267 0 1.4773.1748 1.9517.5242.4773.3494.7557.8253.8352 1.4275zm-3.6051-4.5852.8566 1.0398.8565-1.0398h1.5469v.0597l-1.7301 1.875h-1.3509l-1.7258-1.875v-.0597z"/><path d="m75.0018 43.3557v-6.5454h1.8153v6.5454zm.9119-7.3892c-.2699 0-.5014-.0895-.6946-.2684-.1903-.1819-.2855-.3992-.2855-.652 0-.25.0952-.4645.2855-.6435.1932-.1818.4247-.2727.6946-.2727s.5.0909.6903.2727c.1932.179.2898.3935.2898.6435 0 .2528-.0966.4701-.2898.652-.1903.1789-.4204.2684-.6903.2684z"/><path d="m73.7126 37.6833h-1.8665c-.0341-.2414-.1037-.4559-.2088-.6434-.1051-.1904-.2401-.3523-.4048-.4858-.1648-.1336-.3551-.2358-.5711-.3069-.213-.071-.4446-.1065-.6946-.1065-.4517 0-.8451.1122-1.1804.3367-.3352.2216-.5951.5454-.7798.9716-.1846.4232-.277.9375-.277 1.5426 0 .6221.0924 1.1449.277 1.5681.1875.4233.4489.7429.7841.9589.3352.2159.723.3238 1.1634.3238.2471 0 .4758-.0327.686-.098.2131-.0653.402-.1605.5668-.2855.1648-.1278.3011-.2827.4091-.4645.1108-.1818.1875-.3892.2301-.6222l1.8665.0086c-.0483.4005-.1691.7869-.3622 1.1591-.1904.3693-.4475.7002-.7713.9929-.3211.2897-.7046.5198-1.1506.6903-.4432.1676-.9446.2514-1.5043.2514-.7784 0-1.4744-.1761-2.088-.5284-.6108-.3523-1.0938-.8622-1.4489-1.5298-.3523-.6676-.5284-1.4759-.5284-2.4247 0-.9517.179-1.7614.5369-2.429.358-.6676.8438-1.1761 1.4574-1.5256.6136-.3523 1.304-.5284 2.071-.5284.5057 0 .9745.071 1.4063.2131.4346.142.8196.3494 1.1548.6221.3352.2699.608.6009.8182.9929.2131.3921.3494.8409.4091 1.3466zm-4.6449-5.7741.8565 1.0398.8566-1.0398h1.5468v.0596l-1.7301 1.875h-1.3508l-1.7259-1.875v-.0596z"/></g></svg>