<svg fill="none" height="44" viewBox="0 0 203 44" width="203" xmlns="http://www.w3.org/2000/svg" xmlns:xlink="http://www.w3.org/1999/xlink"><clipPath id="a"><path d="m0 .59091h53.8589v40h-53.8589z"/></clipPath><g clip-path="url(#a)"><g clip-rule="evenodd" fill-rule="evenodd"><path d="m23.5902 28.7961c-.1898-.3142-.3796-.6059-.5674-.8752v.2992c0 2.504-.4995 4.6799-1.4977 6.5277-.9992 1.8468-2.3845 3.2703-4.1559 4.2696-1.7724.9992-3.8319 1.4983-6.1791 1.4983-2.08801 0-3.98139-.4136-5.67941-1.2429-1.69897-.8283-3.04421-2.0937-4.03766-3.795-.99345-1.7014-1.4835434-3.8421-1.47305595-6.423h7.29637595c.02288 1.0249.21163 1.9002.56725 2.628s.84667 1.2846 1.47306 1.6704 1.36814.5782 2.22614.5782c.9019 0 1.6666-.2181 2.293-.6541.6264-.4371 1.1031-1.0794 1.431-1.9269.3271-.8475.4911-1.8905.4911-3.1303v-4.9685c-.3223-.2533-.676-.4777-1.0631-.669-5.33811-2.6333-10.72677 1.8724-10.13947 1.1297-.03147.0021-.01043-.0396.0668-.1368.95627-1.1948 3.38833-5.0347 9.16497-6.2039 10.1862-2.0626 15.4272 6.5747 17.2348 10.4114.4815 1.0249 1.35 2.9229 3.56 4.619.8648.6637 2.6115 1.245 3.8757 1.245 1.2413 0 2.3215-.203 3.2415-.607.573-.2522 1.0659-.5664 1.4787-.9405-2.1442 1.9804-5.0854 3.4435-8.4262 3.4435-4.7575 0-8.5978-2.5083-10.7668-6.0244-.1382-.2533-.2764-.4938-.4146-.7225z" fill="#003f87"/><path d="m42.4447 40.1854c-.3871.0759-.7857.1389-1.1947.1902-.8504.1058-1.7466.1593-2.6886.1593-2.7982 0-6.4584-.5269-9.6104-3.5642-1.8362-1.7687-3.009-3.4113-3.9414-5.3425-.0248-.0513-.0438-.1047-.0657-.156-.1802-.4297-.5463-1.1959-.5463-1.1959-.1307-.264-.2613-.5162-.3928-.7577 2.169 3.516 6.0093 6.0243 10.7668 6.0243 3.3407 0 6.282-1.4631 8.4262-3.4434.2498-.2277.471-.4767.6627-.7492.5081-.7203.7617-1.5496.7617-2.4858 0-.8721-.2288-1.6063-.6855-2.2005-.3194-.4157-.7408-.7876-1.2643-1.1168-.2259-.1421-.4699-.2757-.7331-.4018-.8752-.4168-1.9439-.7962-3.2082-1.1382l-3.7755-1.0623c-2.9222-.7973-5.2304-2.0434-6.9236-3.7384-1.6923-1.695-2.5333-3.9788-2.5218-6.8505-.0115-2.3533.5501-4.4084 1.6837-6.16751 1.1345-1.75804 2.6953-3.13027 4.6812-4.11776 1.986-.98643 4.2437-1.480182 6.7712-1.480182 2.5732 0 4.8223.493752 6.7462 1.480182 1.924.98749 3.4218 2.35972 4.4944 4.11776 1.0716 1.75911 1.6246 3.795 1.6589 6.11091 0 0-5.4106-6.7468-9.8677-6.7468-2.9337 0-5.4459 1.26108-7.3289 3.24141-.2555.22657-.4757.47987-.6616.75773l-.0096.01494c-.4347.65722-.6521 1.40432-.6521 2.23902-.0219.6957.1106 1.3027.3976 1.8221.2879.5183.6864.964 1.1936 1.337.5082.374 1.0946.6957 1.761.9683.6655.2714 1.3767.5023 2.1327.6925l3.1149.8346c1.5121.3794 2.9002.886 4.1644 1.5187s2.3588 1.4096 3.2845 2.3341c.9248.9233 1.6446 2.0112 2.1575 3.2638.5139 1.2515.7762 2.6878.7876 4.3069-.0114 2.3779-.5502 4.4374-1.617 6.1773-1.0659 1.7388-2.6009 3.0864-4.604 4.0418-1.0135.4831-2.1308.8432-3.354 1.0826z" fill="#16bce1"/><path d="m15.7778 14.5245v-13.40175h7.245v14.92145c-2.0146-1.0879-4.4172-1.7292-7.245-1.5197z" fill="#003f87"/><path d="m51.5458 12.2994h-7.0256c-.1354-1.5315-.7161-2.71985-1.7429-3.56734-1.0277-.84856-2.4207-1.27178-4.1816-1.27178-1.1965 0-2.2062.18701-3.0299.56-.4681.2116-.8734.47023-1.2156.77375 1.882-1.98034 4.3941-3.24141 7.3278-3.24141 4.4572 0 8.0497 2.85773 9.8678 6.74678z" fill="#003f87"/></g><path d="m52.761 15.4221c-.5246-.8192-1.0568-1.4947-1.0622-1.5015l-.1532-.194-.1532.194c-.0054.0068-.5376.6823-1.0622 1.5015-.7178 1.1208-1.0817 1.9694-1.0817 2.5223 0 1.3474 1.0305 2.4436 2.2971 2.4436 1.2667 0 2.2971-1.0962 2.2971-2.4436 0-.5529-.3639-1.4015-1.0817-2.5223z" fill="#16bce1"/></g><path d="m76.9498.318182h6.2273v15.954518c-.0076 1.5152-.3902 2.8485-1.1477 4-.75 1.144-1.7879 2.0379-3.1137 2.6818-1.3181.6364-2.8371.9546-4.5568.9546-1.4924 0-2.856-.2576-4.0909-.7727-1.2348-.5228-2.2197-1.3409-2.9545-2.4546-.7349-1.1212-1.0985-2.5757-1.0909-4.3636h6.3181c.0228.5833.1212 1.0757.2955 1.4773.1818.4015.4318.7045.75.909.3257.197.7197.2955 1.1818.2955.4697 0 .8636-.1023 1.1818-.3068.3258-.2046.572-.5076.7387-.9091.1666-.4091.2538-.9129.2613-1.5114zm31.7672 11.636318c0 2.591-.504 4.7766-1.511 6.5569-1.008 1.7727-2.368 3.1174-4.08 4.0341-1.712.909-3.6212 1.3636-5.7273 1.3636-2.1212 0-4.0379-.4583-5.75-1.375-1.7046-.9243-3.0606-2.2727-4.0682-4.0455-1-1.7803-1.5-3.9583-1.5-6.5341 0-2.59086.5-4.77268 1.5-6.54541 1.0076-1.7803 2.3636-3.125 4.0682-4.03409 1.7121-.916667 3.6288-1.375 5.75-1.375 2.1061 0 4.0153.458333 5.7273 1.375 1.712.90909 3.072 2.25379 4.08 4.03409 1.007 1.77273 1.511 3.95455 1.511 6.54541zm-6.5 0c0-1.3939-.186-2.56814-.557-3.52268-.364-.96212-.905-1.6894-1.625-2.18182-.7121-.5-1.5909-.75-2.6363-.75-1.0455 0-1.928.25-2.6477.75-.7122.49242-1.2538 1.2197-1.625 2.18182-.3637.95454-.5455 2.12878-.5455 3.52268 0 1.394.1818 2.572.5455 3.5341.3712.9546.9128 1.6819 1.625 2.1819.7197.4924 1.6022.7386 2.6477.7386 1.0454 0 1.9242-.2462 2.6363-.7386.72-.5 1.261-1.2273 1.625-2.1819.371-.9621.557-2.1401.557-3.5341z" fill="#003f87"/><path d="m124.186 7.59091c-.061-.75758-.345-1.34849-.853-1.77273-.5-.42424-1.261-.63636-2.284-.63636-.651 0-1.185.07954-1.602.23863-.409.15152-.712.35985-.909.625-.197.26516-.299.56819-.307.9091-.015.2803.034.53409.148.76136.121.2197.31.42045.568.60227.258.17424.587.33334.989.47727.401.14394.878.27273 1.431.38637l1.91.40909c1.287.27273 2.39.63259 3.306 1.07959.917.4469 1.667.9734 2.25 1.5795.584.5985 1.012 1.2727 1.284 2.0227.281.75.425 1.5682.432 2.4546-.007 1.5303-.39 2.8257-1.147 3.8863-.758 1.0606-1.841 1.8675-3.25 2.4205-1.402.553-3.088.8295-5.057.8295-2.023 0-3.788-.2992-5.296-.8977-1.5-.5985-2.666-1.5189-3.5-2.7614-.825-1.25-1.242-2.8484-1.25-4.7954h6c.038.7121.216 1.3106.534 1.7954.319.4849.766.8523 1.341 1.1023.584.25 1.277.375 2.08.375.674 0 1.238-.0833 1.693-.25.455-.1666.799-.3977 1.034-.6932.235-.2954.356-.6325.364-1.0113-.008-.3561-.125-.6667-.353-.9318-.219-.2728-.583-.5152-1.09-.7273-.508-.2197-1.194-.4243-2.057-.6137l-2.318-.5c-2.061-.4469-3.686-1.1931-4.875-2.2386-1.182-1.053-1.769-2.48863-1.762-4.30681-.007-1.47727.387-2.76894 1.182-3.875.803-1.11364 1.913-1.98106 3.33-2.602272 1.424-.621212 3.056-.931818 4.897-.931818 1.879 0 3.504.314394 4.875.943182s2.428 1.515148 3.171 2.659088c.75 1.13637 1.129 2.46591 1.136 3.98864zm8.13-2.18182v-5.090908h20.228v5.090908h-7v18.18181h-6.228v-18.18181zm25.713 18.18181h-6.818l7.682-23.272718h8.636l7.682 23.272718h-6.818l-5.091-16.86363h-.182zm-1.272-9.1818h12.818v4.7273h-12.818z" fill="#16bce1"/><path d="m74.3177 34.919h-1.8665c-.034-.2414-.1036-.4559-.2088-.6434-.1051-.1904-.24-.3523-.4048-.4858s-.3551-.2358-.571-.3068c-.2131-.0711-.4446-.1066-.6946-.1066-.4517 0-.8452.1122-1.1804.3367-.3352.2216-.5952.5454-.7798.9716-.1847.4233-.277.9375-.277 1.5426 0 .6221.0923 1.1449.277 1.5682.1875.4233.4488.7429.784.9588.3353.2159.7231.3238 1.1634.3238.2472 0 .4759-.0326.6861-.098.213-.0653.402-.1605.5667-.2855.1648-.1278.3012-.2827.4091-.4645.1108-.1818.1875-.3892.2301-.6221l1.8665.0085c-.0483.4005-.169.7869-.3622 1.1591-.1903.3693-.4474.7003-.7713.9929-.321.2897-.7045.5199-1.1506.6903-.4431.1676-.9446.2514-1.5042.2514-.7784 0-1.4745-.1761-2.0881-.5284-.6108-.3523-1.0937-.8622-1.4489-1.5298-.3522-.6676-.5284-1.4759-.5284-2.4247 0-.9517.179-1.7614.537-2.429.3579-.6676.8437-1.1761 1.4573-1.5256.6137-.3522 1.304-.5284 2.0711-.5284.5057 0 .9744.071 1.4062.2131.4347.142.8196.3494 1.1549.6221.3352.2699.6079.6009.8181.9929.2131.3921.3495.841.4091 1.3466zm-4.6449-5.7741.8566 1.0398.8565-1.0398h1.5469v.0596l-1.7301 1.875h-1.3509l-1.7258-1.875v-.0596zm5.934 11.446v-6.5454h1.8153v6.5454zm.9119-7.3892c-.2699 0-.5014-.0895-.6946-.2685-.1903-.1818-.2855-.3991-.2855-.6519 0-.25.0952-.4645.2855-.6435.1932-.1818.4247-.2727.6946-.2727s.5.0909.6904.2727c.1931.179.2897.3935.2897.6435 0 .2528-.0966.4701-.2897.6519-.1904.179-.4205.2685-.6904.2685zm7.8036 2.7102-1.6619.1023c-.0284-.142-.0895-.2699-.1832-.3835-.0938-.1165-.2174-.2088-.3708-.277-.1505-.071-.3309-.1065-.5412-.1065-.2812 0-.5184.0596-.7116.1789-.1932.1165-.2898.2728-.2898.4688 0 .1562.0625.2883.1875.3963.125.1079.3395.1946.6435.2599l1.1846.2387c.6364.1307 1.1108.3409 1.4233.6307.3125.2897.4688.6704.4688 1.142 0 .429-.1264.8054-.3793 1.1293-.25.3238-.5937.5767-1.0312.7585-.4347.179-.9361.2685-1.5043.2685-.8665 0-1.5568-.1804-2.071-.5412-.5114-.3637-.8111-.858-.8992-1.483l1.7856-.0937c.0539.2642.1846.4659.392.6051.2074.1363.473.2045.7969.2045.3182 0 .5738-.0611.767-.1832.196-.125.2955-.2855.2983-.4816-.0028-.1647-.0724-.2997-.2088-.4048-.1364-.1079-.3466-.1903-.6307-.2471l-1.1335-.2259c-.6392-.1278-1.1151-.3494-1.4276-.6648-.3096-.3153-.4644-.7173-.4644-1.2059 0-.4205.1136-.7827.3409-1.0867.2301-.304.5525-.5383.9673-.7031.4176-.1648.9062-.2472 1.4659-.2472.8267 0 1.4773.1747 1.9517.5242.4773.3494.7557.8253.8352 1.4275zm-3.6051-4.5852.8566 1.0398.8565-1.0398h1.5469v.0597l-1.7301 1.875h-1.3509l-1.7258-1.875v-.0597zm8.3789 2.7188v1.3636h-3.9417v-1.3636zm-3.0468-1.5682h1.8153v6.1022c0 .1677.0256.2983.0767.3921.0511.0909.1222.1548.2131.1918.0937.0369.2017.0554.3238.0554.0853 0 .1705-.0072.2557-.0214.0852-.017.1506-.0298.196-.0383l.2856 1.3508c-.091.0285-.2188.0611-.3836.0981-.1647.0397-.365.0639-.6008.0724-.4375.017-.821-.0412-1.1506-.1747-.3267-.1335-.581-.3409-.7628-.6222-.1818-.2812-.2713-.6363-.2684-1.0653zm7.142 8.2415c-.6733 0-1.2528-.1364-1.7386-.4091-.483-.2756-.8551-.6648-1.1165-1.1677-.2614-.5056-.3921-1.1036-.3921-1.794 0-.6733.1307-1.2642.3921-1.7727s.6293-.9048 1.1037-1.1889c.4773-.2841 1.0369-.4262 1.679-.4262.4318 0 .8338.0696 1.2059.2088.375.1364.7017.3424.9801.6179.2813.2756.5.6222.6563 1.0398.1562.4148.2344.9006.2344 1.4574v.4986h-5.527v-1.125h3.8182c0-.2614-.0569-.4929-.1705-.6946s-.2713-.3594-.473-.473c-.1989-.1165-.4304-.1748-.6946-.1748-.2756 0-.5199.064-.733.1918-.2102.125-.375.294-.4943.5071-.1193.2102-.1804.4446-.1832.7031v1.0696c0 .3239.0596.6037.179.8395.1221.2358.294.4176.5156.5455.2216.1278.4844.1917.7883.1917.2017 0 .3864-.0284.554-.0852s.3111-.142.4304-.2557c.1193-.1136.2102-.2528.2727-.4176l1.679.1108c-.0852.4034-.2599.7557-.5241 1.0568-.2614.2983-.5995.5313-1.0142.6989-.412.1648-.8878.2472-1.4276.2472zm-.9716-9.3921.8565 1.0398.8566-1.0398h1.5469v.0597l-1.7302 1.875h-1.3508l-1.7259-1.875v-.0597zm6.9759 5.4801v3.7841h-1.8154v-6.5454h1.7301v1.1548h.0767c.1449-.3807.3878-.6818.7287-.9034.3413-.2245.7543-.3367 1.2403-.3367.454 0 .851.0995 1.189.2983.338.1989.601.483.788.8523.188.3665.281.804.281 1.3125v4.1676h-1.815v-3.8437c.003-.4006-.099-.7131-.307-.9375-.207-.2273-.493-.3409-.856-.3409-.245 0-.4606.0525-.6481.1576-.1847.1051-.3296.2585-.4347.4602-.1022.1989-.1548.439-.1576.7202zm5.6494 3.7841v-6.5454h1.815v6.5454zm.26-7.3892.903-1.9389h1.679l-1.299 1.9389zm11.889.8438-2.288 6.5454h-2.046l-2.288-6.5454h1.918l1.359 4.6832h.068l1.355-4.6832zm.929 6.5454v-6.5454h1.76v1.142h.068c.12-.4062.32-.7131.601-.9205.281-.2102.605-.3153.972-.3153.091 0 .189.0057.294.0171.105.0113.197.0269.277.0468v1.6108c-.085-.0255-.203-.0483-.354-.0682-.15-.0198-.288-.0298-.413-.0298-.267 0-.506.0582-.716.1747-.208.1137-.372.2728-.494.4773-.12.2045-.179.4403-.179.7074v3.7031zm8.72-6.5454v1.3636h-3.942v-1.3636zm-3.047-1.5682h1.815v6.1022c0 .1677.026.2983.077.3921.051.0909.122.1548.213.1918.094.0369.202.0554.324.0554.085 0 .171-.0072.256-.0214.085-.017.15-.0298.196-.0383l.285 1.3508c-.091.0285-.218.0611-.383.0981-.165.0397-.365.0639-.601.0724-.438.017-.821-.0412-1.151-.1747-.326-.1335-.581-.3409-.762-.6222-.182-.2812-.272-.6363-.269-1.0653zm6.096 8.2372c-.418 0-.79-.0725-1.116-.2173-.327-.1478-.586-.3651-.776-.652-.188-.2898-.281-.6506-.281-1.0824 0-.3637.066-.669.2-.9162s.315-.446.545-.5966c.231-.1506.492-.2642.785-.3409.295-.0767.605-.1307.929-.1619.38-.0398.687-.0767.92-.1108.233-.037.402-.0909.507-.162.105-.071.158-.1761.158-.3153v-.0256c0-.2699-.085-.4787-.256-.6264-.168-.1477-.406-.2216-.716-.2216-.327 0-.586.0725-.78.2173-.193.1421-.321.3211-.383.537l-1.679-.1364c.085-.3977.253-.7415.503-1.0312.25-.2927.572-.5171.967-.6733.398-.1591.858-.2387 1.381-.2387.363 0 .711.0426 1.044.1279.335.0852.632.2173.89.3963.262.179.468.4091.618.6903.151.2784.226.6122.226 1.0014v4.4148h-1.721v-.9077h-.052c-.105.2046-.245.385-.422.5412-.176.1534-.387.2742-.634.3622-.248.0853-.533.1279-.857.1279zm.52-1.2529c.267 0 .503-.0525.707-.1576.205-.108.365-.2529.482-.4347.116-.1818.175-.3878.175-.6179v-.6946c-.057.037-.135.071-.235.1023-.096.0284-.206.0554-.328.081-.122.0227-.244.044-.366.0639-.123.017-.233.0326-.333.0469-.213.0312-.399.0809-.558.1491s-.283.1605-.371.277c-.088.1136-.132.2557-.132.4261 0 .2472.09.4361.269.5668.181.1278.411.1917.69.1917zm6.39-2.6548v3.7841h-1.816v-6.5454h1.731v1.1548h.076c.145-.3807.388-.6818.729-.9034.341-.2245.754-.3367 1.24-.3367.455 0 .851.0995 1.189.2983.338.1989.601.483.788.8523.188.3665.282.804.282 1.3125v4.1676h-1.816v-3.8437c.003-.4006-.099-.7131-.307-.9375-.207-.2273-.492-.3409-.856-.3409-.244 0-.46.0525-.648.1576-.185.1051-.329.2585-.435.4602-.102.1989-.154.439-.157.7202zm6.536 6.2387c-.23 0-.446-.0185-.648-.0554-.199-.0341-.364-.0782-.494-.1321l.409-1.3552c.213.0654.405.1009.575.1066.173.0057.322-.0341.447-.1193.128-.0853.232-.2302.312-.4347l.106-.277-2.348-6.7329h1.909l1.355 4.8068h.068l1.368-4.8068h1.922l-2.544 7.2528c-.122.3523-.288.6591-.498.9205-.208.2642-.471.4673-.789.6093-.318.1449-.701.2174-1.15.2174zm1.005-9.8438.904-1.9389h1.679l-1.3 1.9389zm7.652 7.5171c-.671 0-1.248-.1421-1.73-.4262-.481-.2869-.85-.6846-1.108-1.1932-.256-.5085-.384-1.0937-.384-1.7556 0-.6705.129-1.2586.388-1.7643.261-.5085.632-.9048 1.112-1.1889.48-.2869 1.051-.4304 1.713-.4304.571 0 1.071.1037 1.5.3111s.769.4986 1.019.8736.387.8153.413 1.321h-1.713c-.048-.3267-.176-.5895-.384-.7883-.204-.2017-.473-.3026-.805-.3026-.281 0-.527.0767-.737.2301-.208.1506-.37.3708-.486.6605-.117.2898-.175.6407-.175 1.0526 0 .4176.057.7727.171 1.0653.116.2926.28.5156.49.6691.21.1534.456.2301.737.2301.207 0 .393-.0426.558-.1279.168-.0852.306-.2088.414-.3707.11-.1648.183-.3622.217-.5923h1.713c-.028.5-.165.9403-.409 1.321-.242.3778-.575.6733-1.002.8863-.426.2131-.93.3197-1.512.3197zm5.901-3.912v3.7841h-1.816v-8.7273h1.764v3.3367h.077c.148-.3864.386-.6889.716-.9077.33-.2216.743-.3324 1.24-.3324.455 0 .851.0995 1.189.2983.341.196.605.4787.793.848.19.3665.284.8054.281 1.3168v4.1676h-1.815v-3.8437c.002-.4034-.1-.7174-.307-.9418-.205-.2244-.492-.3366-.861-.3366-.247 0-.466.0525-.656.1576-.188.1051-.336.2585-.444.4602-.105.1989-.159.439-.161.7202zm13.896-.8949-1.662.1023c-.028-.142-.09-.2699-.183-.3835-.094-.1165-.218-.2088-.371-.277-.151-.071-.331-.1065-.541-.1065-.281 0-.519.0596-.712.1789-.193.1165-.29.2728-.29.4688 0 .1562.063.2883.188.3963.125.1079.339.1946.643.2599l1.185.2387c.636.1307 1.111.3409 1.423.6307.313.2897.469.6704.469 1.142 0 .429-.126.8054-.379 1.1293-.25.3238-.594.5767-1.031.7585-.435.179-.937.2685-1.505.2685-.866 0-1.557-.1804-2.071-.5412-.511-.3637-.811-.858-.899-1.483l1.786-.0937c.054.2642.184.4659.392.6051.207.1363.473.2045.797.2045.318 0 .573-.0611.767-.1832.196-.125.295-.2855.298-.4816-.003-.1647-.073-.2997-.209-.4048-.136-.1079-.347-.1903-.631-.2471l-1.133-.2259c-.639-.1278-1.115-.3494-1.428-.6648-.309-.3153-.464-.7173-.464-1.2059 0-.4205.113-.7827.341-1.0867.23-.304.552-.5383.967-.7031.418-.1648.906-.2472 1.466-.2472.827 0 1.477.1747 1.952.5242.477.3494.755.8253.835 1.4275zm4.774-1.8664v1.3636h-3.942v-1.3636zm-3.047-1.5682h1.815v6.1022c0 .1677.026.2983.077.3921.051.0909.122.1548.213.1918.094.0369.202.0554.324.0554.085 0 .17-.0072.255-.0214.086-.017.151-.0298.196-.0383l.286 1.3508c-.091.0285-.219.0611-.384.0981-.164.0397-.365.0639-.6.0724-.438.017-.821-.0412-1.151-.1747-.327-.1335-.581-.3409-.763-.6222-.182-.2812-.271-.6363-.268-1.0653zm8.427 5.3267v-3.7585h1.815v6.5454h-1.743v-1.1889h-.068c-.148.3835-.394.6918-.737.9247-.341.233-.757.3494-1.249.3494-.437 0-.822-.0994-1.155-.2983-.332-.1988-.592-.4815-.78-.848-.184-.3664-.278-.8054-.281-1.3167v-4.1676h1.816v3.8437c.002.3864.106.6918.311.9162.204.2244.478.3366.822.3366.219 0 .423-.0497.614-.1491.19-.1023.343-.2528.46-.4517.119-.1989.177-.4446.175-.7372zm5.679 2.8934c-.497 0-.947-.1278-1.351-.3835-.4-.2585-.719-.6378-.954-1.1378-.233-.5028-.35-1.1193-.35-1.8494 0-.75.121-1.3736.362-1.8707.242-.5.563-.8736.963-1.1208.404-.25.846-.375 1.326-.375.366 0 .672.0625.916.1875.247.1222.446.2756.596.4603.154.1818.27.3608.35.5369h.055v-3.2813h1.811v8.7273h-1.789v-1.0483h-.077c-.085.1818-.206.3622-.362.5412-.154.1761-.354.3225-.601.4389-.244.1165-.543.1747-.895.1747zm.575-1.4446c.293 0 .54-.0795.742-.2386.204-.1619.361-.3878.468-.6776.111-.2897.167-.6292.167-1.0184s-.054-.7273-.162-1.0142c-.108-.287-.264-.5085-.469-.6648-.205-.1562-.453-.2344-.746-.2344-.298 0-.549.081-.754.2429-.205.162-.359.3864-.464.6733-.106.287-.158.6193-.158.9972 0 .3807.052.7173.158 1.0099.107.2898.262.5171.464.6818.205.162.456.2429.754.2429zm6.457-2.446v3.7841h-1.815v-6.5454h1.73v1.1548h.077c.145-.3807.388-.6818.728-.9034.341-.2245.755-.3367 1.241-.3367.454 0 .85.0995 1.188.2983.338.1989.601.483.789.8523.187.3665.281.804.281 1.3125v4.1676h-1.815v-3.8437c.003-.4006-.1-.7131-.307-.9375-.208-.2273-.493-.3409-.857-.3409-.244 0-.46.0525-.647.1576-.185.1051-.33.2585-.435.4602-.102.1989-.155.439-.158.7202zm5.65 3.7841v-6.5454h1.815v6.5454zm.26-7.3892.903-1.9389h1.679l-1.3 1.9389z" fill="#003f87"/></svg>