<svg width="1em" height="1em" viewBox="0 0 22.5 27.5" fill="none" xmlns="http://www.w3.org/2000/svg"><path d="M0 27.5V18.75C0 17.0208 0.609375 15.5469 1.82812 14.3281C3.04688 13.1094 4.52083 12.5 6.25 12.5H7.5V2.5C7.5 1.8125 7.74479 1.22396 8.23438 0.734375C8.72396 0.244792 9.3125 0 10 0H12.5C13.1875 0 13.776 0.244792 14.2656 0.734375C14.7552 1.22396 15 1.8125 15 2.5V12.5H16.25C17.9792 12.5 19.4531 13.1094 20.6719 14.3281C21.8906 15.5469 22.5 17.0208 22.5 18.75V27.5H0V27.5M2.5 25H5V21.25C5 20.8958 5.11979 20.599 5.35938 20.3594C5.59896 20.1198 5.89583 20 6.25 20C6.60417 20 6.90104 20.1198 7.14062 20.3594C7.38021 20.599 7.5 20.8958 7.5 21.25V25H10V21.25C10 20.8958 10.1198 20.599 10.3594 20.3594C10.599 20.1198 10.8958 20 11.25 20C11.6042 20 11.901 20.1198 12.1406 20.3594C12.3802 20.599 12.5 20.8958 12.5 21.25V25H15V21.25C15 20.8958 15.1198 20.599 15.3594 20.3594C15.599 20.1198 15.8958 20 16.25 20C16.6042 20 16.901 20.1198 17.1406 20.3594C17.3802 20.599 17.5 20.8958 17.5 21.25V25H20V18.75C20 17.7083 19.6354 16.8229 18.9062 16.0938C18.1771 15.3646 17.2917 15 16.25 15H6.25C5.20833 15 4.32292 15.3646 3.59375 16.0938C2.86458 16.8229 2.5 17.7083 2.5 18.75V25V25M12.5 12.5V2.5V2.5V2.5H10V2.5V2.5V12.5H12.5V12.5M12.5 12.5H10V12.5V12.5V12.5H12.5V12.5V12.5V12.5V12.5" fill="currentColor"/></svg>