<svg fill="none" viewBox="-6 -12.3 66 66" xmlns="http://www.w3.org/2000/svg" xmlns:xlink="http://www.w3.org/1999/xlink"><clipPath id="a"><path d="m0 .59091h53.8589v40h-53.8589z"/></clipPath><g clip-path="url(#a)"><g clip-rule="evenodd" fill-rule="evenodd"><path d="m23.5902 28.7961c-.1898-.3142-.3796-.6059-.5674-.8752v.2992c0 2.504-.4995 4.6799-1.4977 6.5277-.9992 1.8468-2.3845 3.2703-4.1559 4.2696-1.7724.9992-3.8319 1.4983-6.1791 1.4983-2.08801 0-3.98139-.4136-5.67941-1.2429-1.69897-.8283-3.04421-2.0937-4.03766-3.795-.99345-1.7014-1.4835434-3.8421-1.47305595-6.423h7.29637595c.02288 1.0249.21163 1.9002.56725 2.628s.84667 1.2846 1.47306 1.6704 1.36814.5782 2.22614.5782c.9019 0 1.6666-.2181 2.293-.6541.6264-.4371 1.1031-1.0794 1.431-1.9269.3271-.8475.4911-1.8905.4911-3.1303v-4.9685c-.3223-.2533-.676-.4777-1.0631-.669-5.33811-2.6333-10.72677 1.8724-10.13947 1.1297-.03147.0021-.01043-.0396.0668-.1368.95627-1.1948 3.38833-5.0347 9.16497-6.2039 10.1862-2.0626 15.4272 6.5747 17.2348 10.4114.4815 1.0249 1.35 2.9229 3.56 4.619.8648.6637 2.6115 1.245 3.8757 1.245 1.2413 0 2.3215-.203 3.2415-.607.573-.2522 1.0659-.5664 1.4787-.9405-2.1442 1.9804-5.0854 3.4435-8.4262 3.4435-4.7575 0-8.5978-2.5083-10.7668-6.0244-.1382-.2533-.2764-.4938-.4146-.7225z" fill="#003f87"/><path d="m42.4447 40.1854c-.3871.0759-.7857.1389-1.1947.1902-.8504.1058-1.7466.1593-2.6886.1593-2.7982 0-6.4584-.5269-9.6104-3.5642-1.8362-1.7687-3.009-3.4113-3.9414-5.3425-.0248-.0513-.0438-.1047-.0657-.156-.1802-.4297-.5463-1.1959-.5463-1.1959-.1307-.264-.2613-.5162-.3928-.7577 2.169 3.516 6.0093 6.0243 10.7668 6.0243 3.3407 0 6.282-1.4631 8.4262-3.4434.2498-.2277.471-.4767.6627-.7492.5081-.7203.7617-1.5496.7617-2.4858 0-.8721-.2288-1.6063-.6855-2.2005-.3194-.4157-.7408-.7876-1.2643-1.1168-.2259-.1421-.4699-.2757-.7331-.4018-.8752-.4168-1.9439-.7962-3.2082-1.1382l-3.7755-1.0623c-2.9222-.7973-5.2304-2.0434-6.9236-3.7384-1.6923-1.695-2.5333-3.9788-2.5218-6.8505-.0115-2.3533.5501-4.4084 1.6837-6.16751 1.1345-1.75804 2.6953-3.13027 4.6812-4.11776 1.986-.98643 4.2437-1.480182 6.7712-1.480182 2.5732 0 4.8223.493752 6.7462 1.480182 1.924.98749 3.4218 2.35972 4.4944 4.11776 1.0716 1.75911 1.6246 3.795 1.6589 6.11091 0 0-5.4106-6.7468-9.8677-6.7468-2.9337 0-5.4459 1.26108-7.3289 3.24141-.2555.22657-.4757.47987-.6616.75773l-.0096.01494c-.4347.65722-.6521 1.40432-.6521 2.23902-.0219.6957.1106 1.3027.3976 1.8221.2879.5183.6864.964 1.1936 1.337.5082.374 1.0946.6957 1.761.9683.6655.2714 1.3767.5023 2.1327.6925l3.1149.8346c1.5121.3794 2.9002.886 4.1644 1.5187s2.3588 1.4096 3.2845 2.3341c.9248.9233 1.6446 2.0112 2.1575 3.2638.5139 1.2515.7762 2.6878.7876 4.3069-.0114 2.3779-.5502 4.4374-1.617 6.1773-1.0659 1.7388-2.6009 3.0864-4.604 4.0418-1.0135.4831-2.1308.8432-3.354 1.0826z" fill="#16bce1"/><path d="m15.7778 14.5245v-13.40175h7.245v14.92145c-2.0146-1.0879-4.4172-1.7292-7.245-1.5197z" fill="#003f87"/><path d="m51.5458 12.2994h-7.0256c-.1354-1.5315-.7161-2.71985-1.7429-3.56734-1.0277-.84856-2.4207-1.27178-4.1816-1.27178-1.1965 0-2.2062.18701-3.0299.56-.4681.2116-.8734.47023-1.2156.77375 1.882-1.98034 4.3941-3.24141 7.3278-3.24141 4.4572 0 8.0497 2.85773 9.8678 6.74678z" fill="#003f87"/></g><path d="m52.761 15.4221c-.5246-.8192-1.0568-1.4947-1.0622-1.5015l-.1532-.194-.1532.194c-.0054.0068-.5376.6823-1.0622 1.5015-.7178 1.1208-1.0817 1.9694-1.0817 2.5223 0 1.3474 1.0305 2.4436 2.2971 2.4436 1.2667 0 2.2971-1.0962 2.2971-2.4436 0-.5529-.3639-1.4015-1.0817-2.5223z" fill="#16bce1"/></g></svg>